<svg width="160" height="160" viewBox="0 0 160 160" fill="none" xmlns="http://www.w3.org/2000/svg">
<mask id="mask0_4_31" style="mask-type:alpha" maskUnits="userSpaceOnUse" x="0" y="0" width="160" height="160">
<path d="M153.072 103.102C155.812 104.872 158.463 107.511 159.406 111.12V0.91803H0.313468L0.313468 112.946C0.886775 110.815 2.23893 108.871 3.7784 107.09C3.40947 105.511 3.38785 103.792 3.97411 101.958C4.8678 99.162 6.9691 96.8195 9.50969 94.6456C12.0299 92.4892 15.7053 91.4559 18.3665 90.969C19.8069 90.7055 21.2188 90.5546 22.4349 90.5158C22.7762 90.5049 23.1188 90.5022 23.4554 90.5105C25.56 88.9956 27.7719 87.7134 30.286 87.2312C33.1155 86.6885 35.7621 87.2431 38.4374 88.3483C41.5592 86.2423 45.1945 85.3177 48.9836 85.8353C52.6283 86.3332 56.0587 88.112 59.0827 90.8639C63.1926 89.0058 67.5387 88.9111 71.0721 89.9359C73.326 90.5896 75.5156 91.7771 77.0936 93.559C77.1195 93.5884 77.1454 93.6179 77.1711 93.6477C78.3309 93.1741 79.5027 92.8207 80.7263 92.6192C83.4029 92.1785 85.9192 92.5286 88.5953 93.2235C91.2798 91.2949 94.2853 90.1113 97.5983 89.9295C100.577 89.766 103.522 90.4276 106.403 91.724C108.666 89.6679 111.079 88.2465 113.906 87.7171C116.945 87.148 119.919 87.7318 122.814 88.6551C125.165 87.5298 127.585 87.132 130.188 87.7309C132.486 88.2597 134.612 89.5311 136.549 90.8572C138.503 90.7905 140.814 91.1476 142.814 93.0062C144.679 94.7384 145.7 97.3267 146.454 100.131C148.803 100.824 151.083 101.817 153.072 103.102Z" fill="black"/>
<path d="M10.7853 131.191C9.56946 130.283 8.70657 129.362 7.83227 128.261C6.87621 127.753 5.68087 127.029 4.68167 125.945C3.47826 124.639 2.77291 123.098 2.33684 121.368C1.43149 120.206 0.703982 118.927 0.313468 117.526V159.045L81.719 159.063C80.2793 158.987 78.9174 158.686 77.6243 158.328C75.8463 158.761 74.1685 159.066 72.4814 159.045C70.416 159.02 68.6363 158.518 66.7842 157.749C64.3016 158.401 61.8041 158.532 59.3278 158.061C56.7705 157.574 54.4336 156.482 52.3076 154.945C49.181 155.129 46.2611 155.045 43.6491 154.176C41.189 153.357 39.2877 151.953 37.7108 150.083C37.1115 150.139 36.5396 150.179 35.9974 150.196C34.708 150.235 33.3034 150.161 31.9435 149.721C29.6396 148.975 28.2737 147.48 27.3935 145.887C25.5646 145.77 23.6647 145.384 21.8808 144.509C19.4105 143.298 17.5057 141.318 16.3126 138.624C15.0532 137.971 13.7738 137.093 12.7483 135.786C11.657 134.396 11.0813 132.828 10.7853 131.191Z" fill="black"/>
<path d="M87.8862 157.915C86.2933 158.579 84.7408 158.976 83.109 159.063L159.406 159.08L159.055 120.599C157.969 123.292 155.982 125.509 153.118 127.075C153.008 127.65 152.839 128.21 152.615 128.751C151.919 130.425 150.796 131.659 149.724 132.534C148.688 133.38 147.552 134.012 146.519 134.476C145.958 136.244 144.99 138.045 143.139 139.522C141.097 141.151 138.394 142.032 135.19 142.607C134.21 144.097 133.051 145.438 131.529 146.459C129.869 147.574 128.084 148.107 126.252 148.36C124.901 149.701 123.361 150.821 121.415 151.518C119.531 152.192 117.561 152.36 115.499 152.284C114.198 153.35 112.801 154.203 111.122 154.773C108.914 155.522 106.576 155.65 104.051 155.649C101.695 157.281 99.2498 158.372 96.3936 158.722C93.6546 159.058 90.867 158.667 87.8862 157.915Z" fill="black"/>
<path d="M10.7281 124.753C8.3937 123.562 7.07959 122.891 6.44915 119.354C2.94767 115.503 4.2185 112.948 8.89344 108.096C7.11099 104.727 7.67754 102.062 12.399 98.0224C15.5769 95.3032 23.1691 94.553 24.6945 95.1337C28.1424 92.4736 30.438 91.2119 33.3039 91.5075C33.7543 91.554 34.2189 91.6389 34.7042 91.7629C35.6774 92.0117 36.7343 92.4176 37.9287 92.9857C36.6579 94.0127 36.1444 95.4432 35.9313 96.9571C35.8268 97.6998 35.7945 98.4625 35.7807 99.2075C35.9309 98.1268 37.0652 95.6991 38.6949 93.9337C38.8074 93.8119 38.9222 93.6931 39.0393 93.5782C40.4095 92.2334 41.9206 91.2782 43.5139 90.721C48.2318 89.0712 53.6694 90.9124 58.2978 96.467C63.519 92.541 69.9306 93.3127 73.0163 95.7946C74.4158 96.9203 75.1312 98.3977 74.7412 99.9482C76.4308 98.9042 77.8431 98.1451 79.1539 97.6417C80.6311 97.0744 81.9795 96.8319 83.4505 96.8722C83.8405 96.8829 84.2391 96.9135 84.6509 96.9632C85.7234 97.0926 86.8861 97.3515 88.2219 97.7261C87.0833 99.2494 86.5299 100.437 86.1581 101.775C85.9176 102.64 85.7531 103.567 85.5554 104.689C85.8027 104.166 86.0203 103.684 86.2242 103.232L86.2245 103.232C86.4301 102.776 86.6218 102.351 86.8157 101.948C86.9741 101.619 87.1339 101.304 87.3042 100.998C87.7909 100.123 88.3624 99.3236 89.2257 98.4764C89.3535 98.351 89.4878 98.2244 89.6292 98.0965C91.2752 96.6065 92.9931 95.5552 94.7902 94.9528C98.5726 93.6848 102.706 94.405 107.258 97.2077C112.726 90.982 116.366 91.0084 123.257 93.5042C127.813 90.5247 130.501 91.9957 135.33 95.43C138.146 95.0335 139.77 95.3834 141.063 98.1264C141.207 98.4322 141.347 98.7677 141.484 99.1353C141.841 100.09 142.177 101.261 142.515 102.689C140.607 102.463 139.143 102.56 137.964 102.8C136.698 103.058 135.762 103.479 134.96 103.841C134.343 104.119 133.805 104.361 133.256 104.466C133.954 104.339 134.58 104.218 135.154 104.106C136.307 103.881 137.253 103.697 138.161 103.591C138.451 103.557 138.737 103.531 139.024 103.515C140.044 103.455 141.085 103.511 142.391 103.737C142.504 103.757 142.619 103.778 142.737 103.8C144.447 104.123 146.137 104.625 147.695 105.283C151.375 106.836 154.326 109.258 155.107 112.244C156.218 116.495 155.684 121.865 148.663 124.169C149.797 128.608 144.837 130.538 142.737 131.131C142.022 135.467 140.564 137.437 132.441 138.538C130.21 142.639 128.4 143.869 124.146 144.094C121.322 147.397 119.102 148.22 113.924 147.723C112.817 148.807 111.847 149.566 110.814 150.093C110.318 150.345 109.807 150.544 109.26 150.699C107.866 151.095 106.234 151.208 103.999 151.204C105.825 149.77 106.921 148.483 107.454 146.559C107.709 145.639 107.835 144.575 107.85 143.279C107.395 144.632 106.974 145.729 106.493 146.68C105.845 147.96 105.089 148.977 104 150.005C103.825 150.17 103.641 150.336 103.448 150.503C103.181 150.733 102.897 150.966 102.591 151.204C99.2922 153.781 96.5563 154.689 92.8344 154.322C91.2643 154.166 89.5186 153.784 87.4812 153.204C83.5989 155.194 81.4742 154.862 77.704 153.723C76.4396 154.055 75.3964 154.299 74.4725 154.445C74.032 154.514 73.6186 154.561 73.2212 154.585C71.5244 154.685 70.1206 154.354 68.149 153.5C69.6394 152.959 71.22 151.715 72.2193 150.137C72.4525 149.769 72.654 149.382 72.8154 148.982C72.6745 149.114 72.5342 149.247 72.3937 149.38L72.3936 149.38C72.1587 149.602 71.9232 149.825 71.6834 150.046C70.8001 150.86 69.8582 151.65 68.6715 152.293C68.412 152.434 68.1407 152.568 67.8559 152.693C67.6869 152.768 67.5132 152.839 67.3343 152.908C63.6957 154.3 60.3548 154.208 57.2421 152.734C56.03 152.16 54.8525 151.377 53.7055 150.39C46.1698 151.014 42.8092 150.296 39.7804 145.353C37.6714 145.653 36.0921 145.807 34.8784 145.748C34.171 145.714 33.5877 145.608 33.0962 145.416C31.9012 144.95 31.2481 143.979 30.6699 142.316C31.6949 142.383 32.8474 141.889 33.8563 141.208C34.792 140.577 35.6042 139.785 36.0769 139.131C34.9328 139.9 32.9712 141.071 30.7316 141.374C30.5643 141.397 30.3956 141.415 30.2254 141.427C28.5778 141.547 26.9877 141.492 25.5546 141.136C22.9165 140.481 20.8103 138.811 19.8557 135.353C16.5334 134.003 15.1764 132.787 14.9671 128.613C12.8818 127.421 12.0591 126.505 10.7452 124.761L10.7281 124.753Z" fill="black"/>
</mask>
<g mask="url(#mask0_4_31)">
<path d="M44.2986 69.062L47.261 92.9123C47.261 92.9123 41.9249 94.7729 38.3726 95.3566C34.7423 95.9532 28.077 96.0232 28.077 96.0232L26.5219 79.2095C27.5314 78.6186 28.0672 78.231 28.9662 77.4318C28.0063 76.7819 27.3514 76.2515 25.8553 74.8394C24.8401 55.241 23.9585 44.3144 22.3 24.8425L44.5208 18.7688C44.4268 19.0502 44.3999 19.1996 44.4468 19.4354C44.4468 19.4354 51.0289 15.0473 51.2557 14.8499C51.2566 14.8454 51.2584 14.8431 51.2611 14.8431C51.2628 14.8431 51.2609 14.8454 51.2557 14.8499C51.2317 14.9686 51.8107 16.5849 52.0018 16.4726L72.8894 12.2507C73.2113 21.2719 73.8651 26.6019 75.9263 35.8048L41.4099 42.9154L42.595 53.2852L62.0753 49.5076C64.0137 54.5683 64.1652 58.1503 63.7789 65.0622L44.2986 69.062Z" fill="url(#paint0_linear_4_31)"/>
<path d="M133.182 23.1389C115.882 24.2793 102.522 25.8712 85.3331 28.4719L80.8889 48.2484C90.2174 46.3078 99.1934 45.1221 111.035 44.8412C108.825 48.2913 107.797 50.3578 106.295 53.9518L105.48 52.8407C104.97 56.7201 98.9742 64.3762 96.6657 66.8399C96.1147 67.8122 95.9499 68.3106 95.851 69.136C95.1887 72.0944 94.3082 73.6976 91.9253 76.4689C89.4525 78.7043 88.3649 80.1957 87.333 83.5796C86.272 86.8271 84.7782 95.3266 84.592 98.3935C85.9177 98.1534 88.8139 98.3935 88.8139 98.3935L106.072 97.2084L122.293 95.2825C122.293 95.2825 129.552 94.0974 130.293 88.9126C131.034 83.7277 130.96 74.0987 130.96 74.0987L107.11 81.2834L110.443 72.8395H109.183L115.331 63.2845H114.442C127.675 45.6216 133.117 34.0343 133.182 23.1389Z" fill="url(#paint1_linear_4_31)"/>
<path d="M58.2977 96.467C65.8869 90.7605 75.991 94.9788 74.7412 99.9482C80.1539 96.6036 82.7208 96.1832 88.2218 97.7261C86.347 100.234 86.0589 101.834 85.5553 104.689C86.9245 101.797 87.3855 100.127 89.6291 98.0965C94.7395 93.4705 100.543 93.0734 107.258 97.2077C112.726 90.982 116.365 91.0084 123.257 93.5042C127.813 90.5247 130.501 91.9957 135.33 95.43C139.275 94.8744 140.881 95.7843 142.515 102.689C136.981 102.034 135.183 104.097 133.256 104.466C137.522 103.69 139.09 103.11 142.737 103.8C148.484 104.886 153.996 107.993 155.107 112.244C156.218 116.495 155.684 121.865 148.663 124.169C149.797 128.608 144.837 130.538 142.737 131.131C142.022 135.467 140.564 137.437 132.441 138.538C130.21 142.639 128.4 143.869 124.146 144.094C121.322 147.397 119.102 148.22 113.924 147.723C110.936 150.65 108.942 151.212 103.999 151.204C106.697 149.085 107.802 147.288 107.85 143.279C106.548 147.153 105.519 148.918 102.591 151.204C97.9004 154.869 94.3482 155.159 87.4811 153.204C83.5989 155.194 81.4741 154.862 77.704 153.723C73.2618 154.89 71.5506 154.973 68.149 153.5C69.9872 152.833 71.9625 151.096 72.8154 148.982C71.2695 150.431 69.7934 151.967 67.3342 152.908C62.2789 154.841 57.7982 153.912 53.7054 150.39C46.1697 151.014 42.8091 150.296 39.7804 145.353C33.4539 146.254 31.8941 145.837 30.6698 142.316C32.6456 142.445 35.0945 140.49 36.0769 139.131C34.8473 139.957 32.6737 141.248 30.2254 141.427C25.5447 141.769 21.3288 140.689 19.8557 135.353C16.5334 134.003 15.1763 132.787 14.9671 128.613C12.8818 127.421 12.0591 126.505 10.7451 124.762L10.7281 124.753C8.39367 123.562 7.07956 122.891 6.44911 119.354C2.94764 115.503 4.21846 112.948 8.89341 108.096C7.11095 104.727 7.67751 102.062 12.3989 98.0224C15.5769 95.3033 23.1691 94.553 24.6945 95.1337C29.7711 91.217 32.3496 90.332 37.9286 92.9857C36.0346 94.5165 35.8227 96.9436 35.7806 99.2075C35.9412 98.0522 37.2264 95.3575 39.0392 93.5783C44.4668 88.2511 52.1063 89.0367 58.2977 96.467Z" fill="url(#paint2_radial_4_31)"/>
</g>
<defs>
<linearGradient id="paint0_linear_4_31" x1="49.1131" y1="12.2507" x2="49.1131" y2="96.0232" gradientUnits="userSpaceOnUse">
<stop stop-color="#F79A08"/>
<stop offset="1" stop-color="#E15100"/>
</linearGradient>
<linearGradient id="paint1_linear_4_31" x1="107.035" y1="23.1389" x2="107.035" y2="98.3935" gradientUnits="userSpaceOnUse">
<stop stop-color="#F79A08"/>
<stop offset="1" stop-color="#E15100"/>
</linearGradient>
<radialGradient id="paint2_radial_4_31" cx="0" cy="0" r="1" gradientUnits="userSpaceOnUse" gradientTransform="translate(79.995 93.579) rotate(89.9932) scale(61.0589 90.1402)">
<stop stop-color="#F4F4F4"/>
<stop offset="0.442708" stop-color="#F4F4F4"/>
<stop offset="0.78125" stop-color="#E1F5F8"/>
<stop offset="1" stop-color="#97D6DF"/>
</radialGradient>
</defs>
</svg>
